<svg xmlns="http://www.w3.org/2000/svg" viewBox="0 0 256 256">
  <path d="M64 72h128c10 0 18 8 18 18v64H46V90c0-10 8-18 18-18z" fill="#2f3447"/>
  <path d="M76 82h104c8 0 14 6 14 14v46H62V96c0-8 6-14 14-14z" fill="#8da6d8"/>
  <path d="M86 92c11-7 25-11 40-11 20 0 39 7 53 20v35H77V101c3-3 6-6 9-9z" fill="#b9c9ec" fill-opacity=".7"/>
  <circle cx="128" cy="76" r="4" fill="#dbe5fb"/>
  <path d="M30 156h196l-18 24H48l-18-24z" fill="#242835"/>
  <path d="M54 156h148l-12 14H66l-12-14z" fill="#4c566f"/>
  <rect x="98" y="162" width="60" height="10" rx="5" fill="#d8dfef"/>
  <path d="M46 154h164" stroke="#65708b" stroke-width="6" stroke-linecap="round"/>
  <circle cx="115" cy="112" r="9" fill="#f6e6b9" fill-opacity=".9"/>
  <circle cx="141" cy="112" r="9" fill="#f6e6b9" fill-opacity=".9"/>
  <ellipse cx="128" cy="126" rx="18" ry="10" fill="#f6e6b9" fill-opacity=".9"/>
  <circle cx="117" cy="110" r="2.5" fill="#2f3447"/>
  <circle cx="139" cy="110" r="2.5" fill="#2f3447"/>
  <path d="M121 123c3 3 11 3 14 0" fill="none" stroke="#2f3447" stroke-width="3.5" stroke-linecap="round"/>
</svg>
